<svg xmlns="http://www.w3.org/2000/svg" viewBox="0 0 52 52" width="52" height="52">
  <!-- Sun rays -->
  <g transform="translate(26, 18)">
    <line x1="0" y1="-12" x2="0" y2="-16" stroke="#F5A623" stroke-width="2.5" stroke-linecap="round"/>
    <line x1="9" y1="-9" x2="12" y2="-12" stroke="#F5A623" stroke-width="2.5" stroke-linecap="round"/>
    <line x1="12" y1="0" x2="16" y2="0" stroke="#F5A623" stroke-width="2.5" stroke-linecap="round"/>
    <line x1="-9" y1="-9" x2="-12" y2="-12" stroke="#F5A623" stroke-width="2.5" stroke-linecap="round"/>
    <line x1="-12" y1="0" x2="-16" y2="0" stroke="#F5A623" stroke-width="2.5" stroke-linecap="round"/>
    <line x1="6" y1="-11" x2="8" y2="-14" stroke="#F5A623" stroke-width="2" stroke-linecap="round"/>
    <line x1="-6" y1="-11" x2="-8" y2="-14" stroke="#F5A623" stroke-width="2" stroke-linecap="round"/>
    <!-- Sun body -->
    <path d="M-10,0 A10,10 0 0,1 10,0" fill="#F5A623"/>
    <path d="M-7,0 A7,7 0 0,1 7,0" fill="#FFB347"/>
  </g>
  <!-- Water droplet -->
  <path d="M26,16 Q26,16 18,32 A11,11 0 0,0 34,32 Q26,16 26,16 Z" fill="#00AEEF"/>
  <path d="M26,19 Q26,19 20,31 A8,8 0 0,0 32,31 Q26,19 26,19 Z" fill="#0099D6"/>
  <!-- Shine -->
  <ellipse cx="22.5" cy="30" rx="2.2" ry="3.2" fill="rgba(255,255,255,0.35)" transform="rotate(-15,22.5,30)"/>
  <!-- Leaf -->
  <path d="M33,27 Q39,21 42,22.5 Q41,28 34,32 Z" fill="#4CAF50"/>
  <path d="M34,29 Q37.5,25 40.5,23.5" fill="none" stroke="#388E3C" stroke-width="0.8" stroke-linecap="round"/>
  <!-- Wave -->
  <path d="M20,35 Q23,33 26,35 Q29,37 32,35" fill="none" stroke="rgba(255,255,255,0.45)" stroke-width="1.2" stroke-linecap="round"/>
</svg>